<?xml version="1.0" encoding="UTF-8"?><svg id="Square" xmlns="http://www.w3.org/2000/svg" viewBox="0 0 650 513.48"><defs><style>.cls-1{fill:#00c2f5;}.cls-1,.cls-2,.cls-3{fill-rule:evenodd;}.cls-2{fill:#1c1c1c;opacity:.5;}.cls-3{fill:#fafafa;}.cls-4{opacity:0;}</style></defs><g id="Nova_logo_light_clearspace"><g id="Black"><path id="Joined_pads" class="cls-3" d="M425.11,125.24c-.86,0-1.7.04-2.54.13s-1.67.22-2.48.39c-1.63.33-3.2.82-4.7,1.46-1.49.63-2.9,1.4-4.23,2.3-1.33.9-2.57,1.94-3.7,3.07-1.13,1.13-2.15,2.36-3.04,3.69-.9,1.33-1.68,2.76-2.31,4.26-.63,1.5-1.12,3.08-1.45,4.71-.17.82-.29,1.63-.37,2.47-.09.84-.14,1.7-.14,2.57v50.1c0,2.16-.11,4.3-.33,6.4-.21,2.11-.52,4.18-.94,6.21-.42,2.04-.94,4.04-1.55,6-.61,1.96-1.3,3.89-2.09,5.76-.79,1.87-1.68,3.69-2.64,5.46-.96,1.77-2,3.5-3.12,5.17-1.12,1.67-2.32,3.28-3.59,4.82-1.27,1.55-2.63,3.03-4.04,4.45-1.41,1.42-2.89,2.76-4.43,4.04-1.54,1.28-3.15,2.48-4.81,3.6-1.66,1.13-3.37,2.18-5.13,3.15-1.77.96-3.6,1.84-5.46,2.63-1.87.79-3.79,1.5-5.74,2.11s-3.95,1.12-5.98,1.53-4.1.74-6.2.95c-2.1.21-4.23.33-6.38.33h-49.94c-.86,0-1.7.04-2.54.13-.84.09-1.67.22-2.48.39-1.63.33-3.2.82-4.7,1.46-1.49.63-2.9,1.4-4.23,2.3-1.33.9-2.57,1.94-3.7,3.07-1.13,1.13-2.15,2.36-3.04,3.69-.9,1.33-1.68,2.76-2.31,4.26-.63,1.5-1.12,3.08-1.45,4.71-.17.82-.29,1.63-.37,2.47s-.14,1.7-.14,2.57v75.14c0,.86.06,1.73.14,2.57s.21,1.66.37,2.47c.33,1.63.82,3.21,1.45,4.71.63,1.5,1.41,2.93,2.31,4.26.9,1.33,1.91,2.56,3.04,3.69,1.13,1.13,2.37,2.17,3.7,3.07,1.33.9,2.74,1.67,4.23,2.3s3.07,1.14,4.7,1.47c.81.17,1.64.29,2.48.38.84.09,1.68.13,2.54.13h74.91c.86,0,1.72-.04,2.56-.13.84-.09,1.67-.21,2.48-.38,1.63-.33,3.19-.84,4.68-1.47,1.49-.63,2.92-1.4,4.25-2.3,1.33-.9,2.57-1.94,3.7-3.07,1.13-1.13,2.15-2.36,3.04-3.69.9-1.33,1.68-2.76,2.31-4.26.63-1.5,1.12-3.08,1.45-4.71.17-.82.29-1.63.37-2.47s.12-1.7.12-2.57v-50.1c0-2.16.11-4.3.33-6.4.21-2.11.52-4.19.94-6.23.42-2.04.94-4.04,1.55-6,.61-1.96,1.3-3.87,2.09-5.75.79-1.87,1.68-3.7,2.64-5.48.96-1.77,2-3.5,3.12-5.17,1.12-1.67,2.32-3.28,3.59-4.82,1.27-1.55,2.63-3.03,4.04-4.45,1.41-1.42,2.89-2.76,4.43-4.04,1.54-1.28,3.15-2.48,4.81-3.6,1.66-1.13,3.37-2.18,5.13-3.15,1.77-.96,3.6-1.84,5.46-2.63s3.79-1.5,5.74-2.11c1.95-.61,3.95-1.12,5.98-1.53,2.03-.42,4.1-.74,6.2-.95,2.1-.21,4.23-.31,6.38-.31h49.94c.86,0,1.72-.04,2.56-.13.84-.09,1.67-.21,2.48-.38,1.63-.33,3.19-.84,4.68-1.47,1.49-.63,2.92-1.4,4.25-2.3,1.33-.9,2.57-1.94,3.7-3.07,1.13-1.13,2.15-2.36,3.04-3.69.9-1.33,1.68-2.76,2.31-4.26.63-1.5,1.12-3.08,1.45-4.71.17-.82.29-1.63.37-2.47s.12-1.7.12-2.57v-75.14c0-.86-.04-1.73-.12-2.57-.09-.84-.21-1.66-.37-2.47-.33-1.63-.82-3.21-1.45-4.71-.63-1.5-1.41-2.93-2.31-4.26-.9-1.33-1.91-2.56-3.04-3.69-1.13-1.13-2.37-2.17-3.7-3.07-1.33-.9-2.75-1.67-4.25-2.3-1.49-.63-3.06-1.12-4.68-1.46-.81-.17-1.64-.31-2.48-.39-.84-.09-1.7-.13-2.56-.13h-74.91Z"/><path id="Solo_pad" class="cls-1" d="M150,125.24c-.86,0-1.72.04-2.56.13s-1.67.22-2.48.39c-1.63.33-3.19.82-4.69,1.46-1.5.63-2.92,1.4-4.25,2.3-1.33.9-2.57,1.94-3.7,3.07-1.13,1.13-2.15,2.36-3.05,3.69-.9,1.33-1.68,2.76-2.31,4.26-.63,1.5-1.12,3.08-1.45,4.71-.17.82-.29,1.63-.38,2.47s-.12,1.7-.12,2.57v75.14c0,.86.04,1.73.12,2.57.09.84.21,1.66.38,2.47.33,1.63.82,3.21,1.45,4.71.63,1.5,1.41,2.93,2.31,4.26.9,1.33,1.92,2.56,3.05,3.69,1.13,1.13,2.37,2.17,3.7,3.07,1.33.9,2.75,1.67,4.25,2.3,1.5.63,3.06,1.14,4.69,1.47.81.17,1.64.29,2.48.38.84.09,1.7.13,2.56.13h75c.86,0,1.71-.04,2.55-.13.84-.09,1.67-.21,2.48-.38,1.63-.33,3.21-.84,4.7-1.47,1.5-.63,2.9-1.4,4.23-2.3,1.33-.9,2.57-1.94,3.7-3.07,1.13-1.13,2.15-2.36,3.05-3.69.9-1.33,1.68-2.76,2.31-4.26.63-1.5,1.12-3.08,1.45-4.71.17-.82.29-1.63.38-2.47s.14-1.7.14-2.57v-75.14c0-.86-.06-1.73-.14-2.57s-.21-1.66-.38-2.47c-.33-1.63-.82-3.21-1.45-4.71-.63-1.5-1.41-2.93-2.31-4.26-.9-1.33-1.92-2.56-3.05-3.69-1.13-1.13-2.37-2.17-3.7-3.07-1.33-.9-2.74-1.67-4.23-2.3-1.5-.63-3.08-1.12-4.7-1.46-.81-.17-1.64-.31-2.48-.39-.84-.09-1.68-.13-2.55-.13h-75Z"/></g><g id="Clearspace" class="cls-4"><path id="path4341-9-0-9-7-6-15" class="cls-2" d="M25,194.12c-.86,0-1.72.04-2.56.13s-1.67.22-2.48.39c-1.63.33-3.19.82-4.69,1.46-1.5.63-2.92,1.4-4.25,2.3-1.33.9-2.57,1.94-3.7,3.07-1.13,1.13-2.15,2.36-3.05,3.69-.9,1.33-1.68,2.76-2.31,4.26-.63,1.5-1.12,3.08-1.45,4.71-.17.82-.29,1.63-.38,2.47S0,218.3,0,219.17v75.14C0,295.17.04,296.03.12,296.88c.09.84.21,1.66.38,2.47.33,1.63.82,3.21,1.45,4.71.63,1.5,1.41,2.93,2.31,4.26.9,1.33,1.92,2.56,3.05,3.69,1.13,1.13,2.37,2.17,3.7,3.07,1.33.9,2.75,1.67,4.25,2.3,1.5.63,3.06,1.14,4.69,1.47.81.17,1.64.29,2.48.38.84.09,1.7.13,2.56.13h75c.86,0,1.71-.04,2.55-.13.84-.09,1.67-.21,2.48-.38,1.63-.33,3.21-.84,4.7-1.47s2.9-1.4,4.23-2.3c1.33-.9,2.57-1.94,3.7-3.07,1.13-1.13,2.15-2.36,3.05-3.69.9-1.33,1.68-2.76,2.31-4.26.63-1.5,1.12-3.08,1.45-4.71.17-.82.29-1.63.38-2.47s.14-1.7.14-2.57v-75.14c0-.86-.06-1.73-.14-2.57s-.21-1.66-.38-2.47c-.33-1.63-.82-3.21-1.45-4.71-.63-1.5-1.41-2.93-2.31-4.26-.9-1.33-1.92-2.56-3.05-3.69-1.13-1.13-2.37-2.17-3.7-3.07-1.33-.9-2.74-1.67-4.23-2.3-1.5-.63-3.08-1.12-4.7-1.46-.81-.17-1.64-.31-2.48-.39-.84-.09-1.68-.13-2.55-.13H25Z"/><path id="path4341-9-0-9-7-6-15-2" class="cls-2" d="M287.5,388.24c-.86,0-1.72.04-2.56.13s-1.67.22-2.48.39c-1.63.33-3.19.82-4.69,1.46-1.5.63-2.92,1.4-4.25,2.3-1.33.9-2.57,1.94-3.7,3.07-1.13,1.13-2.15,2.36-3.05,3.69-.9,1.33-1.68,2.76-2.31,4.26-.63,1.5-1.12,3.08-1.45,4.71-.17.82-.29,1.63-.38,2.47s-.13,1.7-.13,2.57v75.14c0,.86.04,1.73.13,2.57.09.84.21,1.66.38,2.47.33,1.63.82,3.21,1.45,4.71.63,1.5,1.41,2.93,2.31,4.26.9,1.33,1.92,2.56,3.05,3.69,1.13,1.13,2.37,2.17,3.7,3.07,1.33.9,2.75,1.67,4.25,2.3s3.06,1.14,4.69,1.47c.81.17,1.64.29,2.48.38.84.09,1.7.13,2.56.13h75c.86,0,1.71-.04,2.55-.13.84-.09,1.67-.21,2.48-.38,1.63-.33,3.21-.84,4.7-1.47s2.9-1.4,4.23-2.3c1.33-.9,2.57-1.94,3.7-3.07,1.13-1.13,2.15-2.36,3.05-3.69.9-1.33,1.68-2.76,2.31-4.26.63-1.5,1.12-3.08,1.45-4.71.17-.82.29-1.63.38-2.47s.14-1.7.14-2.57v-75.14c0-.86-.06-1.73-.14-2.57s-.21-1.66-.38-2.47c-.33-1.63-.82-3.21-1.45-4.71-.63-1.5-1.41-2.93-2.31-4.26-.9-1.33-1.92-2.56-3.05-3.69-1.13-1.13-2.37-2.17-3.7-3.07-1.33-.9-2.74-1.67-4.23-2.3-1.5-.63-3.08-1.12-4.7-1.46-.81-.17-1.64-.31-2.48-.39-.84-.09-1.68-.13-2.55-.13h-75Z"/><path id="path4341-9-0-9-7-6-15-3" class="cls-2" d="M287.5,0c-.86,0-1.72.04-2.56.13s-1.67.22-2.48.39c-1.63.33-3.19.82-4.69,1.46s-2.92,1.4-4.25,2.3c-1.33.9-2.57,1.94-3.7,3.07-1.13,1.13-2.15,2.36-3.05,3.69-.9,1.33-1.68,2.76-2.31,4.26-.63,1.5-1.12,3.08-1.45,4.71-.17.82-.29,1.63-.38,2.47s-.13,1.7-.13,2.57v75.14c0,.86.04,1.73.13,2.57.09.84.21,1.66.38,2.47.33,1.63.82,3.21,1.45,4.71.63,1.5,1.41,2.93,2.31,4.26.9,1.33,1.92,2.56,3.05,3.69,1.13,1.13,2.37,2.17,3.7,3.07,1.33.9,2.75,1.67,4.25,2.3,1.5.63,3.06,1.14,4.69,1.47.81.17,1.64.29,2.48.38s1.7.13,2.56.13h75c.86,0,1.71-.04,2.55-.13s1.67-.21,2.48-.38c1.63-.33,3.21-.84,4.7-1.47,1.5-.63,2.9-1.4,4.23-2.3,1.33-.9,2.57-1.94,3.7-3.07,1.13-1.13,2.15-2.36,3.05-3.69.9-1.33,1.68-2.76,2.31-4.26.63-1.5,1.12-3.08,1.45-4.71.17-.82.29-1.63.38-2.47s.14-1.7.14-2.57V25.05c0-.86-.06-1.73-.14-2.57s-.21-1.66-.38-2.47c-.33-1.63-.82-3.21-1.45-4.71-.63-1.5-1.41-2.93-2.31-4.26-.9-1.33-1.92-2.56-3.05-3.69-1.13-1.13-2.37-2.17-3.7-3.07-1.33-.9-2.74-1.67-4.23-2.3-1.5-.63-3.08-1.12-4.7-1.46-.81-.17-1.64-.31-2.48-.39-.84-.09-1.68-.13-2.55-.13h-75Z"/><path id="path4341-9-0-9-7-6-15-4" class="cls-2" d="M550,194.12c-.86,0-1.72.04-2.56.13s-1.67.22-2.48.39c-1.63.33-3.19.82-4.69,1.46-1.5.63-2.92,1.4-4.25,2.3-1.33.9-2.57,1.94-3.7,3.07-1.13,1.13-2.15,2.36-3.05,3.69-.9,1.33-1.68,2.76-2.31,4.26-.63,1.5-1.12,3.08-1.45,4.71-.17.82-.29,1.63-.38,2.47s-.13,1.7-.13,2.57v75.14c0,.86.04,1.73.13,2.57.09.84.21,1.66.38,2.47.33,1.63.82,3.21,1.45,4.71.63,1.5,1.41,2.93,2.31,4.26.9,1.33,1.92,2.56,3.05,3.69,1.13,1.13,2.37,2.17,3.7,3.07,1.33.9,2.75,1.67,4.25,2.3,1.5.63,3.06,1.14,4.69,1.47.81.17,1.64.29,2.48.38.84.09,1.7.13,2.56.13h75c.86,0,1.71-.04,2.55-.13.84-.09,1.67-.21,2.48-.38,1.63-.33,3.21-.84,4.7-1.47s2.9-1.4,4.23-2.3c1.33-.9,2.57-1.94,3.7-3.07,1.13-1.13,2.15-2.36,3.05-3.69.9-1.33,1.68-2.76,2.31-4.26.63-1.5,1.12-3.08,1.45-4.71.17-.82.29-1.63.38-2.47s.14-1.7.14-2.57v-75.14c0-.86-.06-1.73-.14-2.57s-.21-1.66-.38-2.47c-.33-1.63-.82-3.21-1.45-4.71-.63-1.5-1.41-2.93-2.31-4.26-.9-1.33-1.92-2.56-3.05-3.69-1.13-1.13-2.37-2.17-3.7-3.07-1.33-.9-2.74-1.67-4.23-2.3-1.5-.63-3.08-1.12-4.7-1.46-.81-.17-1.64-.31-2.48-.39-.84-.09-1.68-.13-2.55-.13h-75Z"/></g></g></svg>