<?xml version="1.0" encoding="UTF-8"?><svg id="Horizontal" xmlns="http://www.w3.org/2000/svg" viewBox="0 0 4686 1311.21"><defs><style>.cls-1{fill:none;}.cls-2{fill:#00c2f5;}.cls-2,.cls-3{fill-rule:evenodd;}.cls-4,.cls-3{fill:#fafafa;}</style></defs><g id="Dark"><g id="Voltera"><path id="A" class="cls-4" d="M3992.11,829.31l147.46-347.39h49.82l148.18,347.39h-47.38l-127.3-300.74-124.14,300.74h-46.65Z"/><path id="R" class="cls-4" d="M3610.78,829.31v-347.39h148.21c66.08,0,99.1,27.78,99.1,83.32,0,45.19-32.3,78.61-96.92,100.33l119.26,163.74h-59.27l-110.54-156.22v-29.4c66.42-10.5,99.6-36.03,99.6-76.52,0-32.06-18.46-48.1-55.37-48.1h-99.12v310.23h-44.96Z"/><path id="E" class="cls-4" d="M3439.63,481.92v36.43h-182.22v116.62h173.71v36.43h-173.71v121.47h185.85v36.44h-230.78v-347.39h227.15Z"/><path id="T" class="cls-4" d="M3059.52,481.92v36.43h-109.31v310.96h-44.95v-310.96h-109.33v-36.43h263.59Z"/><path id="L" class="cls-4" d="M2563.31,481.92v310.95h181.71v36.44h-226.64v-347.39h44.93Z"/><path id="O" class="cls-4" d="M2176.66,795.29c82.91,0,124.38-46.89,124.38-140.65s-41.47-138.7-124.38-138.7-127.07,46.24-127.07,138.7,42.35,140.65,127.07,140.65M2002.23,656.08c0-117.74,58.15-176.6,174.43-176.6s171.75,58.87,171.75,176.6-57.26,175.64-171.75,175.64-174.43-58.54-174.43-175.64"/><path id="V" class="cls-4" d="M1867.51,481.92l-147.45,347.39h-49.82l-148.18-347.39h47.37l127.3,300.74,124.14-300.74h46.65Z"/><path id="V-2" class="cls-1" d="M1867.51,0l-147.45,347.39h-49.82L1522.06,0h47.37l127.3,300.74L1820.86,0h46.65Z"/><path id="V-3" class="cls-1" d="M1522.06,1311.21l147.45-347.39h49.82l148.18,347.39h-47.37l-127.3-300.74-124.14,300.74h-46.65Z"/><path id="V-4" class="cls-1" d="M.52,468.2l347.39,147.45v49.82L.52,813.65v-47.37l300.74-127.3L.52,514.85v-46.65Z"/><path id="V-5" class="cls-1" d="M4686,813.65l-347.39-147.45v-49.82l347.39-148.18v47.37l-300.74,127.3,300.74,124.14v46.65Z"/></g><g id="Logo"><path id="Joined_pads" class="cls-3" d="M1052.67,347.39c-2.02,0-4,.09-5.97.29-1.97.2-3.92.53-5.83.92-3.82.78-7.52,1.93-11.03,3.41-3.51,1.49-6.81,3.28-9.93,5.39-3.12,2.11-6.03,4.54-8.69,7.19-2.65,2.66-5.04,5.54-7.15,8.66-2.11,3.12-3.94,6.47-5.42,9.98-1.48,3.51-2.63,7.22-3.41,11.04-.39,1.91-.68,3.82-.88,5.8-.2,1.97-.33,3.99-.33,6.02v117.41c0,5.07-.27,10.07-.77,15.01-.5,4.93-1.22,9.79-2.2,14.57-.98,4.78-2.2,9.46-3.63,14.05-1.43,4.6-3.06,9.11-4.91,13.5-1.85,4.39-3.94,8.65-6.19,12.81-2.26,4.16-4.7,8.2-7.33,12.11-2.63,3.9-5.44,7.68-8.43,11.3-2.99,3.62-6.18,7.1-9.49,10.42-3.32,3.32-6.79,6.48-10.41,9.47-3.62,2.99-7.39,5.8-11.29,8.44-3.9,2.64-7.9,5.12-12.06,7.38-4.15,2.26-8.44,4.31-12.83,6.16-4.38,1.86-8.9,3.52-13.49,4.95-4.59,1.43-9.27,2.62-14.04,3.6-4.77.98-9.62,1.74-14.55,2.24-4.93.5-9.93.77-14.99.77h-117.28c-2.02,0-4,.09-5.97.29-1.97.2-3.92.53-5.83.92-3.82.78-7.52,1.93-11.03,3.41-3.51,1.49-6.81,3.28-9.93,5.39-3.12,2.11-6.03,4.54-8.69,7.19-2.65,2.66-5.04,5.54-7.15,8.66-2.11,3.12-3.94,6.47-5.42,9.98-1.48,3.51-2.63,7.22-3.41,11.04-.39,1.91-.68,3.82-.88,5.8-.2,1.97-.33,3.99-.33,6.02v176.12c0,2.03.13,4.04.33,6.02.2,1.97.49,3.89.88,5.8.78,3.82,1.92,7.53,3.41,11.04,1.48,3.51,3.32,6.86,5.42,9.98,2.11,3.12,4.49,6,7.15,8.66,2.65,2.66,5.57,5.08,8.69,7.19,3.12,2.11,6.42,3.91,9.93,5.39,3.51,1.49,7.21,2.67,11.03,3.45,1.91.39,3.86.68,5.83.88,1.97.2,3.95.29,5.97.29h175.92c2.02,0,4.04-.09,6.01-.29,1.97-.2,3.92-.49,5.83-.88,3.82-.78,7.49-1.96,10.99-3.45,3.51-1.49,6.85-3.28,9.97-5.39,3.12-2.11,6.03-4.54,8.69-7.19,2.65-2.66,5.04-5.54,7.15-8.66,2.11-3.12,3.94-6.47,5.42-9.98,1.48-3.51,2.63-7.22,3.41-11.04.39-1.91.68-3.82.88-5.8.2-1.97.29-3.99.29-6.02v-117.41c0-5.07.27-10.07.77-15.01.5-4.93,1.22-9.83,2.2-14.6.98-4.78,2.2-9.46,3.63-14.05,1.43-4.6,3.06-9.08,4.91-13.47,1.85-4.39,3.94-8.68,6.19-12.84,2.26-4.16,4.7-8.2,7.33-12.11,2.63-3.9,5.44-7.68,8.43-11.3,2.99-3.62,6.18-7.1,9.49-10.42,3.32-3.32,6.79-6.48,10.41-9.47,3.62-2.99,7.39-5.8,11.29-8.44,3.9-2.64,7.9-5.12,12.06-7.38,4.15-2.26,8.44-4.31,12.83-6.16,4.38-1.86,8.9-3.52,13.49-4.95,4.59-1.43,9.27-2.62,14.04-3.6,4.77-.98,9.62-1.74,14.55-2.24,4.93-.5,9.93-.73,14.99-.73h117.28c2.02,0,4.04-.09,6.01-.29,1.97-.2,3.92-.49,5.83-.88,3.82-.78,7.49-1.96,10.99-3.45,3.51-1.49,6.85-3.28,9.97-5.39,3.12-2.11,6.03-4.54,8.69-7.19,2.65-2.66,5.04-5.54,7.15-8.66,2.11-3.12,3.94-6.47,5.42-9.98,1.48-3.51,2.63-7.22,3.41-11.04.39-1.91.68-3.82.88-5.8.2-1.97.29-3.99.29-6.02v-176.12c0-2.03-.09-4.04-.29-6.02-.2-1.97-.49-3.89-.88-5.8-.78-3.82-1.92-7.53-3.41-11.04-1.48-3.51-3.32-6.86-5.42-9.98-2.11-3.12-4.49-6-7.15-8.66-2.65-2.66-5.57-5.08-8.69-7.19-3.12-2.11-6.46-3.91-9.97-5.39-3.51-1.49-7.18-2.63-10.99-3.41-1.91-.39-3.86-.72-5.83-.92-1.97-.2-3.99-.29-6.01-.29h-175.92Z"/><path id="Solo_pad" class="cls-2" d="M406.62,347.39c-2.03,0-4.04.09-6.02.29-1.97.2-3.92.53-5.83.92-3.82.78-7.5,1.93-11.01,3.41-3.51,1.49-6.86,3.28-9.98,5.39-3.12,2.11-6.04,4.54-8.7,7.19-2.66,2.66-5.04,5.54-7.15,8.66-2.11,3.12-3.94,6.47-5.43,9.98-1.49,3.51-2.63,7.22-3.41,11.04-.39,1.91-.68,3.82-.88,5.8-.2,1.97-.29,3.99-.29,6.02v176.12c0,2.03.09,4.04.29,6.02.2,1.97.49,3.89.88,5.8.78,3.82,1.93,7.53,3.41,11.04,1.49,3.51,3.32,6.86,5.43,9.98,2.11,3.12,4.5,6,7.15,8.66,2.66,2.66,5.57,5.08,8.7,7.19,3.12,2.11,6.47,3.91,9.98,5.39,3.51,1.49,7.19,2.67,11.01,3.45,1.91.39,3.86.68,5.83.88,1.97.2,3.99.29,6.02.29h176.12c2.03,0,4.01-.09,5.98-.29,1.97-.2,3.92-.49,5.83-.88,3.82-.78,7.53-1.96,11.04-3.45,3.51-1.49,6.82-3.28,9.94-5.39,3.12-2.11,6.04-4.54,8.7-7.19,2.66-2.66,5.04-5.54,7.15-8.66,2.11-3.12,3.94-6.47,5.43-9.98,1.49-3.51,2.63-7.22,3.41-11.04.39-1.91.68-3.82.88-5.8.2-1.97.33-3.99.33-6.02v-176.12c0-2.03-.13-4.04-.33-6.02-.2-1.97-.49-3.89-.88-5.8-.78-3.82-1.93-7.53-3.41-11.04-1.49-3.51-3.32-6.86-5.43-9.98-2.11-3.12-4.5-6-7.15-8.66-2.66-2.66-5.57-5.08-8.7-7.19-3.12-2.11-6.43-3.91-9.94-5.39-3.51-1.49-7.22-2.63-11.04-3.41-1.91-.39-3.86-.72-5.83-.92-1.97-.2-3.95-.29-5.98-.29h-176.12Z"/></g></g></svg>